<?xml version="1.0" encoding="UTF-8"?>
<svg id="Layer_2" data-name="Layer 2" xmlns="http://www.w3.org/2000/svg" xmlns:xlink="http://www.w3.org/1999/xlink" viewBox="0 0 80 80">
  <defs>
    <style>
      .cls-1 {
        fill: #0a6a45;
      }

      .cls-1, .cls-2, .cls-3, .cls-4 {
        stroke-width: 0px;
      }

      .cls-2 {
        fill: #f2b51e;
      }

      .cls-3 {
        fill: #fdfefe;
      }

      .cls-5 {
        filter: url(#drop-shadow-1);
      }

      .cls-4 {
        fill: #e6e7e8;
      }
    </style>
    <filter id="drop-shadow-1" filterUnits="userSpaceOnUse">
      <feOffset dx="7" dy="7"/>
      <feGaussianBlur result="blur" stdDeviation="5"/>
      <feFlood flood-color="#231f20" flood-opacity=".75"/>
      <feComposite in2="blur" operator="in"/>
      <feComposite in="SourceGraphic"/>
    </filter>
  </defs>
  <g id="Layer_1-2" data-name="Layer 1">
    <g>
      <circle class="cls-4" cx="40" cy="40" r="40"/>
      <g class="cls-5">
        <path class="cls-1" d="M63.93,59.98c-.27.56-.78.45-1.25.45-9.83,0-19.66,0-29.5,0-4.82,0-9.64,0-14.46,0-.38,0-.76.02-1.11-.2-1.11-1.81-2.33-3.56-3.14-5.54-4.08-9.9-3.12-19.28,2.86-28.18,1.27-1.9,2.79-3.57,4.49-5.03,3.89-3.33,8.36-5.58,13.42-6.54,7.37-1.39,14.29-.13,20.66,3.82,6.35,3.94,10.57,9.56,12.52,16.75,2.17,7.99,1.04,15.6-3.26,22.7-.32.53-.74,1.01-1.11,1.52,0,0,0,0,0,0-.04.09-.08.17-.13.26ZM24.6,25.17c.06.28.08.53.18.75,1.93,4.47,3.51,9.07,5.32,13.58.25.62.57,1.22.28,2.06-.99,2.91-2.47,5.63-3.38,8.57-.57,1.85-1.37,3.63-2.17,5.4-.37.82-.11.86.59.86,4.66-.02,9.33,0,13.99,0,5.49,0,10.99,0,16.48,0,.52,0,1.02.04.71-.74-1.69-4.28-3.4-8.56-5.06-12.86-.35-.91-1.12-1.86-.55-2.87.6-1.05.84-2.22,1.31-3.31,1.44-3.29,2.69-6.65,3.99-10,.56-1.46.53-1.46-1.07-1.46-7.6.01-15.2.02-22.81.03-2.59,0-5.17,0-7.82,0Z"/>
        <path class="cls-2" d="M24.6,25.17c2.65,0,5.23,0,7.82,0,7.6,0,15.2-.01,22.81-.03,1.6,0,1.64,0,1.07,1.46-1.29,3.35-2.55,6.72-3.99,10-.48,1.09-.72,2.26-1.31,3.31-.57,1,.19,1.95.55,2.87,1.66,4.3,3.37,8.57,5.06,12.86.31.78-.2.74-.71.74-5.49,0-10.99,0-16.48,0-4.66,0-9.33,0-13.99,0-.7,0-.96-.04-.59-.86.8-1.77,1.59-3.55,2.17-5.4.92-2.94,2.39-5.66,3.38-8.57.29-.84-.03-1.45-.28-2.06-1.81-4.51-3.39-9.11-5.32-13.58-.09-.22-.11-.47-.18-.75ZM40.6,52.17c1.47,0,2.94-.03,4.4.01.64.02.82-.18.79-.81-.05-1.11-.05-2.23,0-3.34.03-.66-.17-.88-.85-.87-2.92.04-5.83.03-8.75.02-.44,0-.62.09-.6.58.04,1.24.05,2.49.01,3.73-.02.55.15.71.7.69,1.43-.04,2.87-.01,4.31-.01ZM45.8,27.66s0,0,0-.01c-1.28,0-2.55.03-3.83-.01-.72-.02-1.03.17-1,.97.06,1.82,0,3.64.03,5.46,0,.34-.26.87.5.87.67,0,1-.19.98-.92-.03-1.12,0-2.23,0-3.35,0-1.56-.37-1.57,1.59-1.56.71,0,.86.25.85.88-.03,1.4,0,2.81,0,4.21,0,.43.05.92.61.87.47-.04.86-.29.83-.93-.05-1.08-.03-2.17-.01-3.25.02-1.86.03-1.84,1.93-1.76.55.02.72.22.71.74-.03,1.4-.01,2.81-.03,4.21,0,.48-.04.87.66.85.66-.02.77-.29.76-.89-.05-1.91-.08-3.83,0-5.74.02-.54-.06-.65-.54-.64-1.34.02-2.68,0-4.02,0ZM35.79,27.67s0-.01,0-.02c-1.31,0-2.62.01-3.93,0-.58,0-.87.14-.86.8.03,1.88.02,3.77,0,5.65,0,.52.09.84.73.83.59-.01.78-.23.77-.8-.02-1.12,0-2.23,0-3.35,0-1.73-.01-1.71,1.73-1.66.55.01.69.19.68.73-.04,1.43,0,2.87-.01,4.31,0,.51.13.77.7.76.54-.02.82-.15.8-.77-.04-1.31,0-2.62-.03-3.93-.02-.69.02-1.14.94-1.11,1.57.05,1.64.02,1.65,1.14.02,1.34.04,2.68-.02,4.02-.02.5.04.7.58.66.46-.03.85.04.83-.68-.05-1.98-.03-3.96.01-5.94.01-.53-.18-.66-.65-.65-1.31.02-2.62,0-3.93,0Z"/>
        <path class="cls-1" d="M40.6,52.17c-1.44,0-2.87-.02-4.31.01-.54.01-.72-.14-.7-.69.04-1.24.03-2.49-.01-3.73-.02-.49.16-.58.6-.58,2.92.01,5.83.02,8.75-.02.68,0,.88.21.85.87-.05,1.11-.05,2.23,0,3.34.03.63-.16.83-.79.81-1.47-.04-2.93-.01-4.4-.01Z"/>
        <path class="cls-3" d="M45.8,27.66c1.34,0,2.68.01,4.02,0,.49,0,.57.1.54.64-.08,1.91-.05,3.83,0,5.74.01.6-.1.87-.76.89-.7.02-.67-.37-.66-.85.02-1.4,0-2.81.03-4.21.01-.52-.16-.72-.71-.74-1.9-.08-1.9-.1-1.93,1.76-.01,1.08-.04,2.17.01,3.25.03.64-.35.88-.83.93-.56.05-.61-.44-.61-.87,0-1.4-.03-2.81,0-4.21.01-.63-.14-.88-.85-.88-1.96,0-1.59,0-1.59,1.56,0,1.12-.03,2.23,0,3.35.02.72-.31.92-.98.92-.75,0-.49-.53-.5-.87-.02-1.82.03-3.64-.03-5.46-.02-.79.28-.99,1-.97,1.28.04,2.55.01,3.83.01,0,0,0,0,0,.01Z"/>
        <path class="cls-3" d="M35.79,27.67c1.31,0,2.62.01,3.93,0,.47,0,.66.12.65.65-.04,1.98-.06,3.96-.01,5.94.02.71-.38.64-.83.68-.53.04-.6-.16-.58-.66.06-1.34.04-2.68.02-4.02-.01-1.11-.09-1.08-1.65-1.14-.93-.03-.96.42-.94,1.11.04,1.31,0,2.62.03,3.93.02.62-.26.75-.8.77-.57.02-.71-.25-.7-.76.02-1.44-.03-2.87.01-4.31.01-.54-.13-.72-.68-.73-1.75-.05-1.74-.07-1.73,1.66,0,1.12-.02,2.23,0,3.35.01.57-.19.78-.77.8-.64.01-.73-.31-.73-.83.01-1.88.03-3.77,0-5.65-.01-.66.29-.81.86-.8,1.31.02,2.62,0,3.93,0,0,0,0,.01,0,.02Z"/>
      </g>
    </g>
  </g>
</svg>